# xmcd CD database file
#
# Track frame offsets:
#	150
#	11625
#	23562
#	35567
#	48831
#	62596
#	76304
#	88267
#	102014
#	114649
#	128396
#	141604
#	156648
#	171542
#	185634
#	198809
#	212181
#	225191
#	238730
#	251298
#	265248
#	278424
#	291124
#	303457
#	316259
#
# Disc length: 4399 seconds
#
# Revision: 0
# Processed by: cddbd v1.5.2PL0 Copyright (c) Steve Scherf et al.
# Submitted via: Fey Extractor 
#
DISCID=5a112d19
DTITLE=Lonnie Johnson - A Life in Music - Lonnie Johnson - A Life in Music3
DYEAR=2009
DGENRE=Blues
TTITLE0=Lonnie Johnson - A Life in Music3 - Man Killing Broad
TTITLE1=Lonnie Johnson - A Life in Music3 - Hard Times A'int Gone Nowhere
TTITLE2=Lonnie Johnson - A Life in Music3 - Got the Blues for the West End
TTITLE3=Lonnie Johnson - A Life in Music3 - Why Women Go Wrong
TTITLE4=Lonnie Johnson - A Life in Music3 - Jersy Belle Blues
TTITLE5=Lonnie Johnson - A Life in Music3 - Four O Three Blues
TTITLE6=Lonnie Johnson - A Life in Music3 -  Crowing Rooster Blues
TTITLE7=Lonnie Johnson - A Life in Music3 - Lazy Woman Blues
TTITLE8=Lonnie Johnson - A Life in Music3 - Chicago Blues
TTITLE9=Lonnie Johnson - A Life in Music3 - From 22 to 44
TTITLE10=Lonnie Johnson - A Life in Music3 - Rambler's Blues
TTITLE11=Lonnie Johnson - A Life in Music3 - Fly Right Baby
TTITLE12=Lonnie Johnson - A Life in Music3 - He's a Jelly Roll Baker
TTITLE13=Lonnie Johnson - A Life in Music3 - Watch Shorty
TTITLE14=Lonnie Johnson - A Life in Music3 - Keep What You Got
TTITLE15=Lonnie Johnson - A Life in Music3 - Drifting Along Blues
TTITLE16=Lonnie Johnson - A Life in Music3 - How Could You be so Mean
TTITLE17=Lonnie Johnson - A Life in Music3 - Rocks in my Bed
TTITLE18=Lonnie Johnson - A Life in Music3 - Love is the Answer
TTITLE19=Lonnie Johnson - A Life in Music3 - Blues for Everybody
TTITLE20=Lonnie Johnson - A Life in Music3 - Blues in my Soul
TTITLE21=Lonnie Johnson - A Life in Music3 - Your Last Time Out
TTITLE22=Lonnie Johnson - A Life in Music3 - Blues for Lonnie
TTITLE23=Lonnie Johnson - A Life in Music3 - What a Woman
TTITLE24=Lonnie Johnson - A Life in Music3 - Tomorrow Night
EXTD=YEAR: 2009
EXTT0=
EXTT1=
EXTT2=
EXTT3=
EXTT4=
EXTT5=
EXTT6=
EXTT7=
EXTT8=
EXTT9=
EXTT10=
EXTT11=
EXTT12=
EXTT13=
EXTT14=
EXTT15=
EXTT16=
EXTT17=
EXTT18=
EXTT19=
EXTT20=
EXTT21=
EXTT22=
EXTT23=
EXTT24=
PLAYORDER=
